<mxfile host="65bd71144e">
    <diagram id="MUxmjHAQV9Hpbm8Fm8w4" name="第 1 页">
        <mxGraphModel dx="4206" dy="455" grid="1" gridSize="10" guides="1" tooltips="1" connect="1" arrows="1" fold="1" page="1" pageScale="1" pageWidth="3300" pageHeight="2339" math="0" shadow="0">
            <root>
                <mxCell id="0"/>
                <mxCell id="1" parent="0"/>
                <mxCell id="5" value="" style="edgeStyle=none;html=1;fontSize=14;" parent="1" source="3" target="4" edge="1">
                    <mxGeometry relative="1" as="geometry"/>
                </mxCell>
                <mxCell id="3" value="// 找那些与水不互溶但是能够溶解其他固体药品的溶剂&#10;liquidStrong(container; dt; medicineManager; medH2OVo);" style="rounded=1;whiteSpace=wrap;fontSize=14;" parent="1" vertex="1">
                    <mxGeometry x="120" y="150" width="520" height="50" as="geometry"/>
                </mxCell>
                <mxCell id="12" value="" style="edgeStyle=none;html=1;fontSize=14;" parent="1" source="4" target="11" edge="1">
                    <mxGeometry relative="1" as="geometry"/>
                </mxCell>
                <mxCell id="4" value="if (!medH2OVo)" style="rhombus;whiteSpace=wrap;rounded=1;fontSize=14;" parent="1" vertex="1">
                    <mxGeometry x="297.5" y="230" width="165" height="50" as="geometry"/>
                </mxCell>
                <mxCell id="9" value="" style="curved=1;endArrow=classic;html=1;exitX=1;exitY=0.5;exitDx=0;exitDy=0;fontSize=14;" parent="1" source="4" edge="1">
                    <mxGeometry width="50" height="50" relative="1" as="geometry">
                        <mxPoint x="560" y="360" as="sourcePoint"/>
                        <mxPoint x="790" y="70" as="targetPoint"/>
                        <Array as="points">
                            <mxPoint x="770" y="250"/>
                        </Array>
                    </mxGeometry>
                </mxCell>
                <mxCell id="10" value="return" style="text;html=1;align=center;verticalAlign=middle;resizable=0;points=[];autosize=1;strokeColor=none;fillColor=none;fontSize=14;" parent="1" vertex="1">
                    <mxGeometry x="760" y="50" width="60" height="30" as="geometry"/>
                </mxCell>
                <mxCell id="14" style="edgeStyle=none;html=1;exitX=0.5;exitY=1;exitDx=0;exitDy=0;entryX=0.5;entryY=0;entryDx=0;entryDy=0;fontSize=14;" edge="1" parent="1" source="11" target="13">
                    <mxGeometry relative="1" as="geometry"/>
                </mxCell>
                <mxCell id="11" value="// 递归获取弱电解质分子可能生成的离子&#10;possibleIonMap  = splitWeakElectrolyte()" style="whiteSpace=wrap;rounded=1;labelBorderColor=none;fontSize=14;" parent="1" vertex="1">
                    <mxGeometry x="210" y="310" width="340" height="50" as="geometry"/>
                </mxCell>
                <mxCell id="15" style="edgeStyle=none;html=1;exitX=0.5;exitY=1;exitDx=0;exitDy=0;entryX=0.5;entryY=0;entryDx=0;entryDy=0;fontSize=14;" edge="1" parent="1" source="13" target="17">
                    <mxGeometry relative="1" as="geometry">
                        <mxPoint x="280" y="520" as="targetPoint"/>
                    </mxGeometry>
                </mxCell>
                <mxCell id="18" style="edgeStyle=none;html=1;exitX=0.5;exitY=1;exitDx=0;exitDy=0;fontSize=14;entryX=0.5;entryY=0;entryDx=0;entryDy=0;" edge="1" parent="1" source="13" target="19">
                    <mxGeometry relative="1" as="geometry">
                        <mxPoint x="660" y="490" as="targetPoint"/>
                    </mxGeometry>
                </mxCell>
                <mxCell id="13" value="该方法通过传入的离子计算他们之间能组合成的化合物&#10;getChemicalsFromIons" style="whiteSpace=wrap;rounded=1;labelBorderColor=none;fontSize=14;" vertex="1" parent="1">
                    <mxGeometry x="202.5" y="390" width="355" height="50" as="geometry"/>
                </mxCell>
                <mxCell id="20" style="edgeStyle=none;html=1;exitX=0.5;exitY=1;exitDx=0;exitDy=0;fontSize=14;entryX=0.5;entryY=0;entryDx=0;entryDy=0;" edge="1" parent="1" source="17" target="21">
                    <mxGeometry relative="1" as="geometry">
                        <mxPoint x="380" y="670" as="targetPoint"/>
                    </mxGeometry>
                </mxCell>
                <mxCell id="17" value="计算强电解质&#10;calStrongElectrolyte(container, dt, svo.vo, medH2OVo);" style="rounded=1;whiteSpace=wrap;fontSize=14;" vertex="1" parent="1">
                    <mxGeometry x="-10" y="520" width="370" height="60" as="geometry"/>
                </mxCell>
                <mxCell id="22" style="edgeStyle=none;html=1;exitX=0.5;exitY=1;exitDx=0;exitDy=0;entryX=0.5;entryY=0;entryDx=0;entryDy=0;fontSize=14;" edge="1" parent="1" source="19" target="21">
                    <mxGeometry relative="1" as="geometry"/>
                </mxCell>
                <mxCell id="19" value="计算弱电解质的沉淀和析出&#10;calWeakElectrolyte(container, obj, medH2OVo);" style="rounded=1;whiteSpace=wrap;fontSize=14;" vertex="1" parent="1">
                    <mxGeometry x="400" y="520" width="390" height="60" as="geometry"/>
                </mxCell>
                <mxCell id="21" value="计算水的电离&#10;calStrongElectrolyte(container, dt, originMedH2OVo.deepClone(), medH2OVo);" style="rounded=1;whiteSpace=wrap;fontSize=14;" vertex="1" parent="1">
                    <mxGeometry x="90" y="680" width="580" height="60" as="geometry"/>
                </mxCell>
            </root>
        </mxGraphModel>
    </diagram>
</mxfile>